<svg width="768" height="170" viewBox="0 0 768 170" fill="none" xmlns="http://www.w3.org/2000/svg">
<path d="M225.736 128.768C223.432 128.768 220.957 128.683 218.312 128.512C215.752 128.427 213.107 128.256 210.376 128C207.731 127.659 205.213 127.36 202.824 127.104C200.435 126.763 198.301 126.379 196.424 125.952V113.536C198.813 113.707 201.587 113.877 204.744 114.048C207.987 114.219 211.357 114.347 214.856 114.432C218.355 114.517 221.725 114.56 224.968 114.56C228.381 114.56 231.411 114.261 234.056 113.664C236.701 112.981 238.749 111.829 240.2 110.208C241.651 108.587 242.376 106.283 242.376 103.296V98.816C242.376 95.488 241.437 92.928 239.56 91.136C237.683 89.344 234.909 88.448 231.24 88.448H222.408C213.789 88.448 207.133 86.5707 202.44 82.816C197.832 79.0613 195.528 72.6187 195.528 63.488V58.624C195.528 49.4933 198.045 42.9227 203.08 38.912C208.2 34.816 215.496 32.768 224.968 32.768C228.211 32.768 231.539 32.9387 234.952 33.28C238.451 33.536 241.779 33.8773 244.936 34.304C248.093 34.7307 250.781 35.2 253 35.712V48.128C249.245 47.872 244.936 47.616 240.072 47.36C235.293 47.104 230.856 46.976 226.76 46.976C223.517 46.976 220.659 47.3173 218.184 48C215.709 48.6827 213.832 49.92 212.552 51.712C211.272 53.4187 210.632 55.9787 210.632 59.392V62.464C210.632 66.4747 211.699 69.2907 213.832 70.912C216.051 72.5333 219.208 73.344 223.304 73.344H233.16C238.707 73.344 243.272 74.368 246.856 76.416C250.44 78.464 253.085 81.28 254.792 84.864C256.584 88.3627 257.48 92.3733 257.48 96.896V102.912C257.48 109.909 256.115 115.285 253.384 119.04C250.653 122.795 246.899 125.355 242.12 126.72C237.341 128.085 231.88 128.768 225.736 128.768ZM272.707 128V33.536H311.747C314.734 33.536 317.763 33.92 320.835 34.688C323.907 35.3707 326.723 36.7787 329.283 38.912C331.928 41.0453 334.019 44.2027 335.555 48.384C337.176 52.5653 337.987 58.1547 337.987 65.152C337.987 72.1493 337.176 77.7813 335.555 82.048C333.934 86.3147 331.8 89.6 329.155 91.904C326.595 94.1227 323.779 95.6587 320.707 96.512C317.72 97.28 314.819 97.664 312.003 97.664C310.552 97.664 308.718 97.6213 306.499 97.536C304.366 97.3653 302.104 97.1947 299.715 97.024C297.411 96.768 295.235 96.5547 293.187 96.384C291.224 96.128 289.646 95.9147 288.451 95.744V128H272.707ZM288.451 83.328H309.699C312.174 83.328 314.35 82.7733 316.227 81.664C318.104 80.4693 319.555 78.592 320.579 76.032C321.603 73.3867 322.115 69.8027 322.115 65.28C322.115 60.8427 321.56 57.344 320.451 54.784C319.427 52.224 318.019 50.432 316.227 49.408C314.52 48.2987 312.515 47.744 310.211 47.744H288.451V83.328ZM387.041 128.768C380.726 128.768 375.18 128.171 370.401 126.976C365.708 125.696 361.74 123.435 358.497 120.192C355.34 116.864 352.95 112.043 351.329 105.728C349.793 99.4133 349.025 91.1787 349.025 81.024C349.025 70.784 349.836 62.5067 351.457 56.192C353.078 49.792 355.468 44.928 358.625 41.6C361.868 38.1867 365.836 35.84 370.529 34.56C375.308 33.28 380.812 32.64 387.041 32.64C393.441 32.64 399.03 33.28 403.809 34.56C408.588 35.84 412.556 38.1867 415.713 41.6C418.87 44.928 421.217 49.792 422.753 56.192C424.374 62.5067 425.185 70.784 425.185 81.024C425.185 91.1787 424.374 99.4133 422.753 105.728C421.217 112.043 418.828 116.864 415.585 120.192C412.428 123.435 408.46 125.696 403.681 126.976C398.988 128.171 393.441 128.768 387.041 128.768ZM387.041 114.56C391.222 114.56 394.721 114.133 397.537 113.28C400.438 112.341 402.742 110.72 404.449 108.416C406.156 106.027 407.393 102.656 408.161 98.304C408.929 93.8667 409.313 88.1067 409.313 81.024C409.313 73.5147 408.886 67.5413 408.033 63.104C407.265 58.5813 406.028 55.168 404.321 52.864C402.614 50.4747 400.353 48.896 397.537 48.128C394.721 47.2747 391.222 46.848 387.041 46.848C383.116 46.848 379.745 47.2747 376.929 48.128C374.113 48.896 371.809 50.4747 370.017 52.864C368.31 55.168 367.03 58.5813 366.177 63.104C365.324 67.5413 364.897 73.5147 364.897 81.024C364.897 88.1067 365.238 93.8667 365.921 98.304C366.689 102.656 367.926 106.027 369.633 108.416C371.34 110.72 373.601 112.341 376.417 113.28C379.318 114.133 382.86 114.56 387.041 114.56ZM460.184 128V47.744H433.048V33.536H503.064V47.744H476.056V128H460.184ZM513.957 128V33.536H529.701V128H513.957ZM547.332 128V54.144C547.332 50.1333 547.929 46.8053 549.124 44.16C550.319 41.4293 551.897 39.296 553.86 37.76C555.908 36.224 558.127 35.1573 560.516 34.56C562.991 33.8773 565.423 33.536 567.812 33.536C571.14 33.536 575.065 33.5787 579.588 33.664C584.111 33.664 588.847 33.792 593.796 34.048C598.745 34.2187 603.524 34.5173 608.132 34.944V48.128H572.036C569.22 48.128 567.001 48.9387 565.38 50.56C563.844 52.096 563.076 54.2293 563.076 56.96V76.032L602.372 76.928V89.344L563.076 90.24V128H547.332ZM656.023 128.64C650.818 128.64 645.996 128.213 641.559 127.36C637.122 126.421 633.282 124.843 630.039 122.624C626.796 120.32 624.279 117.205 622.487 113.28C620.78 109.269 619.927 104.149 619.927 97.92V33.536H635.671V97.92C635.671 102.016 636.482 105.301 638.103 107.776C639.724 110.165 642.028 111.872 645.015 112.896C648.087 113.92 651.756 114.432 656.023 114.432C660.29 114.432 663.916 113.92 666.903 112.896C669.975 111.872 672.322 110.165 673.943 107.776C675.564 105.301 676.375 102.016 676.375 97.92V33.536H692.119V97.92C692.119 104.149 691.223 109.269 689.431 113.28C687.724 117.205 685.25 120.32 682.007 122.624C678.764 124.843 674.924 126.421 670.487 127.36C666.135 128.213 661.314 128.64 656.023 128.64ZM729.577 128C725.14 128 721.3 127.317 718.057 125.952C714.9 124.587 712.51 122.368 710.889 119.296C709.268 116.139 708.457 112 708.457 106.88V33.536H724.201V104.32C724.201 106.709 724.628 108.629 725.481 110.08C726.334 111.445 727.444 112.384 728.809 112.896C730.26 113.408 731.838 113.664 733.545 113.664H764.905V128H729.577Z" fill="#FFFCF9"/>
<path d="M130.804 71.4004C128.743 71.4004 127.475 70.8815 125.691 69.8437C97.4689 52.8798 47.0102 48.8085 14.3488 57.989C12.9219 58.3881 11.1382 59.0268 9.23556 59.0268C4.0034 59.0268 0 54.9155 0 49.6068C0 44.1783 3.32956 41.1049 6.89694 40.0671C20.8494 35.9558 36.4666 34 53.4711 34C82.4066 34 112.729 40.0671 134.887 53.0794C137.978 54.8756 140 57.3503 140 62.1002C140 67.5287 135.64 71.4004 130.804 71.4004ZM118.516 101.816C116.455 101.816 115.068 100.898 113.641 100.139C88.8675 85.3707 51.9253 79.4234 19.0657 88.4043C17.1631 88.9231 16.1325 89.442 14.3488 89.442C10.1076 89.442 6.65912 85.9694 6.65912 81.6985C6.65912 77.4276 8.72027 74.5936 12.8029 73.4361C23.8222 70.3227 35.0793 68.0076 51.5685 68.0076C77.2933 68.0076 102.146 74.434 121.727 86.169C124.938 88.0849 126.206 90.5597 126.206 94.0323C126.166 98.3431 122.837 101.816 118.516 101.816ZM107.854 128C106.189 128 105.159 127.481 103.613 126.563C78.8788 111.555 50.1019 110.916 21.6818 116.784C20.1359 117.183 18.1144 117.822 16.9649 117.822C13.12 117.822 10.7022 114.748 10.7022 111.515C10.7022 107.404 13.12 105.448 16.0929 104.809C48.5561 97.5847 81.7327 98.2234 110.034 115.267C112.452 116.824 113.879 118.221 113.879 121.853C113.879 125.485 111.065 128 107.854 128Z" fill="#FF6978"/>
</svg>
