<svg viewBox="-9.5 -9.5 50 50" xmlns="http://www.w3.org/2000/svg">
    <path fill-rule="evenodd" clip-rule="evenodd" d="M39 20C39 30.4934 30.4934 39 20 39C9.50659 39 1 30.4934 1 20C1 9.50659 9.50659 1 20 1C30.4934 1 39 9.50659 39 20ZM40 20C40 31.0457 31.0457 40 20 40C8.9543 40 0 31.0457 0 20C0 8.9543 8.9543 0 20 0C31.0457 0 40 8.9543 40 20ZM18 9C18 8.05719 18 7.58579 18.2929 7.29289C18.5858 7 19.0572 7 20 7C20.9428 7 21.4142 7 21.7071 7.29289C22 7.58579 22 8.05719 22 9V18H31C31.9428 18 32.4142 18 32.7071 18.2929C33 18.5858 33 19.0572 33 20C33 20.9428 33 21.4142 32.7071 21.7071C32.4142 22 31.9428 22 31 22H22V31C22 31.9428 22 32.4142 21.7071 32.7071C21.4142 33 20.9428 33 20 33C19.0572 33 18.5858 33 18.2929 32.7071C18 32.4142 18 31.9428 18 31V22H9C8.05719 22 7.58579 22 7.29289 21.7071C7 21.4142 7 20.9428 7 20C7 19.0572 7 18.5858 7.29289 18.2929C7.58579 18 8.05719 18 9 18H18V9Z" />
</svg>
