<svg width="357" height="368" viewBox="0 0 357 368" fill="none" xmlns="http://www.w3.org/2000/svg">
<path d="M178.5 5.75C79.9651 5.75 0 85.6031 0 184C0 282.397 79.9651 362.25 178.5 362.25C277.035 362.25 357 282.397 357 184C357 85.6031 277.035 5.75 178.5 5.75Z" fill="#FFFCF9"/>
<path d="M292.654 166.103C288.911 166.103 286.608 165.169 283.369 163.3C232.122 132.753 140.497 125.422 81.1887 141.953C78.5976 142.672 75.3587 143.822 71.9038 143.822C62.403 143.822 55.1335 136.419 55.1335 126.859C55.1335 117.084 61.1795 111.55 67.6573 109.681C92.9928 102.278 121.351 98.7563 152.229 98.7563C204.771 98.7563 259.833 109.681 300.067 133.113C305.681 136.347 309.352 140.803 309.352 149.356C309.352 159.131 301.435 166.103 292.654 166.103ZM270.341 220.872C266.598 220.872 264.079 219.219 261.488 217.853C216.503 191.259 149.422 180.55 89.7538 196.722C86.299 197.656 84.4276 198.591 81.1887 198.591C73.4873 198.591 67.2254 192.338 67.2254 184.647C67.2254 176.956 70.9682 171.853 78.3817 169.769C98.3909 164.163 118.832 159.994 148.774 159.994C195.486 159.994 240.615 171.566 276.171 192.697C282.001 196.147 284.304 200.603 284.304 206.856C284.232 214.619 278.187 220.872 270.341 220.872ZM250.98 268.022C247.957 268.022 246.085 267.088 243.278 265.434C198.365 238.409 146.111 237.259 94.5043 247.825C91.6972 248.544 88.0264 249.694 85.9391 249.694C78.9575 249.694 74.567 244.159 74.567 238.338C74.567 230.934 78.9575 227.413 84.3557 226.263C143.304 213.253 203.548 214.403 254.938 245.094C259.329 247.897 261.92 250.413 261.92 256.953C261.92 263.494 256.81 268.022 250.98 268.022Z" fill="#413052"/>
</svg>
