<svg viewBox="-9.5 -9.5 50 50" xmlns="http://www.w3.org/2000/svg">
<path fill-rule="evenodd" clip-rule="evenodd" d="M39 20C39 30.4934 30.4934 39 20 39C9.50659 39 1 30.4934 1 20C1 9.50659 9.50659 1 20 1C30.4934 1 39 9.50659 39 20ZM40 20C40 31.0457 31.0457 40 20 40C8.9543 40 0 31.0457 0 20C0 8.9543 8.9543 0 20 0C31.0457 0 40 8.9543 40 20ZM32.7071 18.2929C32.4142 18 31.9428 18 31 18L9 18C8.05719 18 7.58579 18 7.29289 18.2929C7 18.5858 7 19.0572 7 20C7 20.9428 7 21.4142 7.29289 21.7071C7.58579 22 8.05719 22 9 22H31H31C31.9428 22 32.4142 22 32.7071 21.7071C33 21.4142 33 20.9428 33 20C33 19.0572 33 18.5858 32.7071 18.2929Z"/>
</svg>
